<svg 
 xmlns="http://www.w3.org/2000/svg"
 xmlns:xlink="http://www.w3.org/1999/xlink"
 width="249px" height="168px">
<path fill-rule="evenodd"  opacity="0.102" fill="rgb(243, 243, 243)"
 d="M247.442,86.840 C246.357,89.839 244.371,92.016 241.481,93.370 L144.772,138.667 C141.882,140.021 138.919,140.162 135.885,139.092 C132.850,138.021 130.649,136.057 129.280,133.200 L104.562,81.637 C107.506,82.856 110.621,83.703 113.906,84.179 C134.867,87.403 149.331,89.773 157.298,91.289 C160.667,91.938 163.372,92.408 165.415,92.697 C167.457,92.986 170.024,93.056 173.117,92.906 C176.210,92.757 178.873,92.158 181.107,91.112 L181.173,91.081 L181.238,91.050 C183.472,90.004 185.626,88.347 187.702,86.075 C189.778,83.804 191.349,81.796 192.417,80.050 C193.483,78.304 194.830,75.937 196.455,72.949 C201.348,64.136 208.674,51.561 218.433,35.220 C220.120,32.362 221.407,29.453 222.294,26.493 L247.012,78.056 C248.381,80.913 248.524,83.841 247.442,86.840 ZM210.437,30.456 C199.385,49.470 192.509,61.306 189.808,65.963 C189.515,66.472 188.900,67.569 187.965,69.252 C187.029,70.937 186.241,72.314 185.600,73.382 C184.959,74.451 184.157,75.687 183.195,77.092 C182.233,78.498 181.254,79.671 180.258,80.615 C179.263,81.559 178.261,82.267 177.254,82.738 L177.188,82.769 L177.122,82.800 C176.114,83.272 174.926,83.589 173.557,83.754 C172.188,83.918 170.648,83.924 168.939,83.770 C167.229,83.616 165.753,83.446 164.511,83.259 C163.268,83.073 161.691,82.805 159.780,82.453 C157.869,82.103 156.621,81.879 156.039,81.781 C150.725,80.878 143.093,79.613 133.144,77.991 C123.195,76.369 117.227,75.387 115.240,75.045 C111.652,74.499 107.891,73.199 103.958,71.145 C100.023,69.091 97.403,66.701 96.095,63.973 C94.476,60.597 94.036,57.357 94.775,54.254 C95.513,51.152 97.568,48.810 100.941,47.231 L197.650,1.934 C200.496,0.600 203.448,0.464 206.504,1.524 C209.559,2.585 211.773,4.543 213.142,7.400 C214.782,10.821 215.275,14.592 214.624,18.714 C213.971,22.837 212.576,26.751 210.437,30.456 ZM19.056,126.042 L12.830,114.633 L88.495,77.865 L94.722,89.275 L19.056,126.042 ZM82.868,122.929 L7.202,159.696 L0.976,148.286 L76.642,111.518 L82.868,122.929 ZM123.000,130.253 L47.334,167.021 L41.108,155.610 L116.774,118.842 L123.000,130.253 Z"/>
</svg>